<?xml version="1.0" encoding="UTF-8"?>
<!DOCTYPE svg PUBLIC "-//W3C//DTD SVG 1.1//EN" "http://www.w3.org/Graphics/SVG/1.1/DTD/svg11.dtd">
<svg xmlns="http://www.w3.org/2000/svg" version="1.1" width="244px" height="270px" style="shape-rendering:geometricPrecision; text-rendering:geometricPrecision; image-rendering:optimizeQuality; fill-rule:evenodd; clip-rule:evenodd" xmlns:xlink="http://www.w3.org/1999/xlink">
<g><path style="opacity:1" fill="#f0f0f1" d="M -0.5,-0.5 C 80.8333,-0.5 162.167,-0.5 243.5,-0.5C 243.5,89.5 243.5,179.5 243.5,269.5C 162.167,269.5 80.8333,269.5 -0.5,269.5C -0.5,179.5 -0.5,89.5 -0.5,-0.5 Z"/></g>
<g><path style="opacity:1" fill="#da8f5b" d="M 69.5,73.5 C 64.5721,72.1784 59.5721,71.1784 54.5,70.5C 54.2493,73.909 54.5827,77.2423 55.5,80.5C 59.3118,81.0967 62.9785,82.0967 66.5,83.5C 68.5,85.5 70.5,87.5 72.5,89.5C 73.2458,90.7362 73.5792,92.0695 73.5,93.5C 74.5,93.5 75.5,93.5 76.5,93.5C 76.5,95.5 76.5,97.5 76.5,99.5C 74.1364,93.4401 70.1364,88.4401 64.5,84.5C 60.6746,82.8547 56.6746,82.188 52.5,82.5C 52.5,77.8333 52.5,73.1667 52.5,68.5C 58.8145,68.3722 64.4812,70.0389 69.5,73.5 Z"/></g>
<g><path style="opacity:1" fill="#e59565" d="M 163.5,77.5 C 162.292,76.7659 160.959,76.4326 159.5,76.5C 148.779,75.8581 138.446,76.5247 128.5,78.5C 128.167,78.5 127.833,78.5 127.5,78.5C 127.5,77.5 127.5,76.5 127.5,75.5C 139.88,74.8542 151.88,75.5209 163.5,77.5 Z"/></g>
<g><path style="opacity:1" fill="#ef7b2f" d="M 69.5,73.5 C 77.8199,76.9878 83.6532,82.9878 87,91.5C 90.9106,104.97 93.744,118.637 95.5,132.5C 106.888,132.883 118.221,132.383 129.5,131C 139.086,127.395 145.753,120.895 149.5,111.5C 149.833,111.5 150.167,111.5 150.5,111.5C 152.064,105.23 153.064,98.7303 153.5,92C 153.39,89.7448 152.39,88.0781 150.5,87C 144.485,86.5758 138.485,86.0758 132.5,85.5C 130.718,83.394 129.385,81.0606 128.5,78.5C 138.839,78.3335 149.172,78.5002 159.5,79C 159.824,90.1377 160.824,100.971 162.5,111.5C 157.568,129.768 145.902,140.768 127.5,144.5C 113.656,144.829 99.9898,144.496 86.5,143.5C 86.8155,138.832 86.1488,134.332 84.5,130C 85.4257,126.861 85.5923,123.694 85,120.5C 83.9887,119.663 82.8221,119.33 81.5,119.5C 81.7148,117.821 81.0481,116.821 79.5,116.5C 78.3431,110.87 77.3431,105.203 76.5,99.5C 76.5,97.5 76.5,95.5 76.5,93.5C 75.5,93.5 74.5,93.5 73.5,93.5C 73.5792,92.0695 73.2458,90.7362 72.5,89.5C 70.5,87.5 68.5,85.5 66.5,83.5C 62.9785,82.0967 59.3118,81.0967 55.5,80.5C 54.5827,77.2423 54.2493,73.909 54.5,70.5C 59.5721,71.1784 64.5721,72.1784 69.5,73.5 Z"/></g>
<g><path style="opacity:1" fill="#d57a36" d="M 159.5,76.5 C 160.959,76.4326 162.292,76.7659 163.5,77.5C 163.828,89.0123 163.495,100.346 162.5,111.5C 162.667,100.828 162.5,90.1615 162,79.5C 161.302,78.3094 160.469,77.3094 159.5,76.5 Z"/></g>
<g><path style="opacity:1" fill="#fbe6cb" d="M 127.5,78.5 C 127.833,78.5 128.167,78.5 128.5,78.5C 129.385,81.0606 130.718,83.394 132.5,85.5C 133.842,86.793 135.509,87.6264 137.5,88C 141.821,88.499 146.154,88.6657 150.5,88.5C 150.5,96.1667 150.5,103.833 150.5,111.5C 150.167,111.5 149.833,111.5 149.5,111.5C 149.5,104.167 149.5,96.8333 149.5,89.5C 144.489,89.6659 139.489,89.4993 134.5,89C 129.92,86.9324 127.586,83.4324 127.5,78.5 Z"/></g>
<g><path style="opacity:1" fill="#fc7521" d="M 159.5,76.5 C 160.469,77.3094 161.302,78.3094 162,79.5C 162.5,90.1615 162.667,100.828 162.5,111.5C 160.824,100.971 159.824,90.1377 159.5,79C 149.172,78.5002 138.839,78.3335 128.5,78.5C 138.446,76.5247 148.779,75.8581 159.5,76.5 Z"/></g>
<g><path style="opacity:1" fill="#181819" d="M 113.5,87.5 C 121.012,86.3939 127.512,88.3939 133,93.5C 133.758,95.7695 133.591,97.9361 132.5,100C 128.167,103.667 123.833,107.333 119.5,111C 114.333,112.5 112.5,110.667 114,105.5C 117.465,103.037 120.631,100.204 123.5,97C 114.052,93.3908 108.385,96.5574 106.5,106.5C 107.494,116.324 112.828,120.157 122.5,118C 128.268,115.135 131.268,110.468 131.5,104C 133.441,103.257 135.274,103.424 137,104.5C 138.175,115.667 133.341,122.834 122.5,126C 106.02,126.853 98.1865,119.02 99,102.5C 101.386,94.9498 106.219,89.9498 113.5,87.5 Z"/></g>
<g><path style="opacity:1" fill="#db8246" d="M 132.5,85.5 C 138.485,86.0758 144.485,86.5758 150.5,87C 152.39,88.0781 153.39,89.7448 153.5,92C 153.064,98.7303 152.064,105.23 150.5,111.5C 150.5,103.833 150.5,96.1667 150.5,88.5C 146.154,88.6657 141.821,88.499 137.5,88C 135.509,87.6264 133.842,86.793 132.5,85.5 Z"/></g>
<g><path style="opacity:1" fill="#e38143" d="M 79.5,116.5 C 81.0481,116.821 81.7148,117.821 81.5,119.5C 82.8221,119.33 83.9887,119.663 85,120.5C 85.5923,123.694 85.4257,126.861 84.5,130C 86.1488,134.332 86.8155,138.832 86.5,143.5C 86.1667,143.5 85.8333,143.5 85.5,143.5C 84.2817,134.297 82.2817,125.297 79.5,116.5 Z"/></g>
<g><path style="opacity:1" fill="#f9bb93" d="M 85.5,143.5 C 85.8333,143.5 86.1667,143.5 86.5,143.5C 99.9898,144.496 113.656,144.829 127.5,144.5C 120.675,145.166 113.675,145.5 106.5,145.5C 99.1333,145.497 92.1333,144.83 85.5,143.5 Z"/></g>
<g><path style="opacity:1" fill="#19191a" d="M 138.5,147.5 C 147.97,147.474 151.804,152.141 150,161.5C 147.119,166.19 142.952,168.023 137.5,167C 131.975,164.081 130.142,159.581 132,153.5C 133.494,150.686 135.66,148.686 138.5,147.5 Z"/></g>
<g><path style="opacity:1" fill="#191819" d="M 102.5,147.5 C 114.393,148.787 117.393,154.62 111.5,165C 105.058,169.124 99.8917,167.957 96,161.5C 94.1702,154.832 96.3369,150.165 102.5,147.5 Z"/></g>
<g><path style="opacity:1" fill="#de8043" d="M 63.5,180.5 C 62.1667,180.5 60.8333,180.5 59.5,180.5C 59.5,181.5 59.5,182.5 59.5,183.5C 64.6945,183.942 64.6945,184.942 59.5,186.5C 61.3316,187.057 62.6649,188.057 63.5,189.5C 61.3926,190.468 59.0593,190.802 56.5,190.5C 56.5,186.5 56.5,182.5 56.5,178.5C 59.3878,177.99 61.7211,178.656 63.5,180.5 Z"/></g>
<g><path style="opacity:1" fill="#e07f3d" d="M 143.5,178.5 C 145.924,178.192 148.257,178.526 150.5,179.5C 149.311,180.429 147.978,180.762 146.5,180.5C 146.5,181.5 146.5,182.5 146.5,183.5C 151.833,184.167 151.833,184.833 146.5,185.5C 146.5,186.5 146.5,187.5 146.5,188.5C 148.288,188.215 149.955,188.548 151.5,189.5C 148.914,190.48 146.247,190.813 143.5,190.5C 143.5,186.5 143.5,182.5 143.5,178.5 Z"/></g>
<g><path style="opacity:1" fill="#e08747" d="M 154.5,177.5 C 157.956,177.596 161.123,178.596 164,180.5C 163.081,183.284 162.581,186.284 162.5,189.5C 161.5,189.5 160.5,189.5 159.5,189.5C 159.719,188.325 159.386,187.325 158.5,186.5C 157.571,187.689 157.238,189.022 157.5,190.5C 156.5,190.5 155.5,190.5 154.5,190.5C 154.5,186.167 154.5,181.833 154.5,177.5 Z"/></g>
<g><path style="opacity:1" fill="#ffe8cc" d="M 157.5,180.5 C 158.5,180.5 159.5,180.5 160.5,180.5C 160.5,181.5 160.5,182.5 160.5,183.5C 159.5,183.5 158.5,183.5 157.5,183.5C 157.5,182.5 157.5,181.5 157.5,180.5 Z"/></g>
<g><path style="opacity:1" fill="#e27f40" d="M 88.5,178.5 C 88.5394,179.583 88.8728,180.583 89.5,181.5C 89,181.833 88.5,182.167 88,182.5C 85.9011,181.713 83.7345,181.38 81.5,181.5C 81.2606,183.467 81.5939,185.301 82.5,187C 84.9359,186.947 87.2692,187.113 89.5,187.5C 86.745,190.686 83.4117,191.353 79.5,189.5C 79.5,186.167 79.5,182.833 79.5,179.5C 82.4299,178.701 85.4299,178.368 88.5,178.5 Z"/></g>
<g><path style="opacity:1" fill="#dbaf87" d="M 109.5,181.5 C 108.99,184.388 109.656,186.721 111.5,188.5C 111.5,189.5 111.5,190.5 111.5,191.5C 110.5,191.5 109.5,191.5 108.5,191.5C 108.5,190.5 108.5,189.5 108.5,188.5C 108.198,185.941 108.532,183.607 109.5,181.5 Z"/></g>
<g><path style="opacity:1" fill="#e37d3e" d="M 182.5,178.5 C 184.924,178.192 187.257,178.526 189.5,179.5C 183.053,181.37 183.053,183.036 189.5,184.5C 184.306,186.058 184.306,187.058 189.5,187.5C 189.5,188.5 189.5,189.5 189.5,190.5C 187.167,190.5 184.833,190.5 182.5,190.5C 182.5,186.5 182.5,182.5 182.5,178.5 Z"/></g>
<g><path style="opacity:1" fill="#db8241" d="M 114.5,182.5 C 114.369,183.376 114.702,184.043 115.5,184.5C 117.047,183.232 118.047,181.565 118.5,179.5C 119.689,178.571 121.022,178.238 122.5,178.5C 122.5,182.5 122.5,186.5 122.5,190.5C 121.5,190.5 120.5,190.5 119.5,190.5C 119.662,188.473 119.495,186.473 119,184.5C 116.667,191.167 114.333,191.167 112,184.5C 111.51,185.793 111.343,187.127 111.5,188.5C 109.656,186.721 108.99,184.388 109.5,181.5C 109.5,180.5 109.5,179.5 109.5,178.5C 112.4,178.408 114.067,179.741 114.5,182.5 Z"/></g>
<g><path style="opacity:1" fill="#db8446" d="M 169.5,178.5 C 172.545,178.508 175.545,178.841 178.5,179.5C 178.5,180.5 178.5,181.5 178.5,182.5C 175.873,181.908 173.206,181.575 170.5,181.5C 170.261,183.467 170.594,185.301 171.5,187C 173.856,187.155 176.189,187.155 178.5,187C 175.844,190.731 172.51,191.398 168.5,189C 166.988,185.276 167.321,181.776 169.5,178.5 Z"/></g>
<g><path style="opacity:1" fill="#f2eee6" d="M 114.5,182.5 C 114.067,179.741 112.4,178.408 109.5,178.5C 109.5,179.5 109.5,180.5 109.5,181.5C 108.532,183.607 108.198,185.941 108.5,188.5C 106.058,188.354 105.391,189.187 106.5,191C 103.5,191.333 100.5,191.667 97.5,192C 97.761,194.203 97.261,196.37 96,198.5C 95.7216,197.584 95.2216,196.918 94.5,196.5C 93.5255,195.365 92.3588,194.365 91,193.5C 90.2828,194.044 89.7828,194.711 89.5,195.5C 88.8333,195.5 88.5,195.833 88.5,196.5C 87.7784,196.918 87.2784,197.584 87,198.5C 86.0255,196.122 85.3589,196.456 85,199.5C 85.0799,197.008 84.2466,194.675 82.5,192.5C 81.448,192.649 80.448,192.483 79.5,192C 79.8333,191.667 80.1667,191.333 80.5,191C 74.7848,190.742 69.1181,190.242 63.5,189.5C 62.6649,188.057 61.3316,187.057 59.5,186.5C 64.6945,184.942 64.6945,183.942 59.5,183.5C 59.5,182.5 59.5,181.5 59.5,180.5C 60.8333,180.5 62.1667,180.5 63.5,180.5C 68.787,179.658 74.1203,179.324 79.5,179.5C 79.5,182.833 79.5,186.167 79.5,189.5C 83.4117,191.353 86.745,190.686 89.5,187.5C 87.2692,187.113 84.9359,186.947 82.5,187C 81.5939,185.301 81.2606,183.467 81.5,181.5C 83.7345,181.38 85.9011,181.713 88,182.5C 88.5,182.167 89,181.833 89.5,181.5C 88.8728,180.583 88.5394,179.583 88.5,178.5C 90.2838,178.893 91.9505,179.559 93.5,180.5C 92.4134,188.924 95.7467,191.758 103.5,189C 107.254,180.903 104.587,177.403 95.5,178.5C 94.5707,177.685 93.5707,176.852 92.5,176C 93.5,175.833 94.5,175.667 95.5,175.5C 98.8333,176.833 102.167,176.833 105.5,175.5C 108.512,176.172 111.512,176.839 114.5,177.5C 114.5,179.167 114.5,180.833 114.5,182.5 Z"/></g>
<g><path style="opacity:1" fill="#d98048" d="M 95.5,178.5 C 104.587,177.403 107.254,180.903 103.5,189C 95.7467,191.758 92.4134,188.924 93.5,180.5C 94.5,180.167 95.1667,179.5 95.5,178.5 Z"/></g>
<g><path style="opacity:1" fill="#f6eeda" d="M 97.5,180.5 C 101.935,180.752 103.268,182.919 101.5,187C 96.5705,187.427 95.2372,185.26 97.5,180.5 Z"/></g>
<g><path style="opacity:1" fill="#e27e3d" d="M 67.5,183.5 C 69.924,183.192 72.2573,183.526 74.5,184.5C 73.3333,184.833 72.1667,185.167 71,185.5C 69.3189,185.392 68.1522,184.725 67.5,183.5 Z"/></g>
<g><path style="opacity:1" fill="#f5eadf" d="M 137.5,189.5 C 139.414,186.316 140.08,182.649 139.5,178.5C 136.225,179.614 134.058,181.947 133,185.5C 132.069,183.541 131.236,181.541 130.5,179.5C 129.311,178.571 127.978,178.238 126.5,178.5C 126.146,182.637 126.646,186.637 128,190.5C 129.117,189.051 129.784,187.384 130,185.5C 130.687,187.555 131.854,189.221 133.5,190.5C 134.176,189.398 134.842,188.398 135.5,187.5C 135.5,188.833 135.5,190.167 135.5,191.5C 132.216,191.723 129.049,192.39 126,193.5C 124.893,192.288 124.393,192.621 124.5,194.5C 124.167,194.5 123.833,194.5 123.5,194.5C 121.61,194.703 120.11,194.037 119,192.5C 118.848,194.382 118.015,196.049 116.5,197.5C 114.649,193.613 113.316,193.947 112.5,198.5C 111.032,197.131 109.365,195.964 107.5,195C 109.075,195.379 110.575,195.212 112,194.5C 112.789,192.288 112.622,190.288 111.5,188.5C 111.343,187.127 111.51,185.793 112,184.5C 114.333,191.167 116.667,191.167 119,184.5C 119.495,186.473 119.662,188.473 119.5,190.5C 120.5,190.5 121.5,190.5 122.5,190.5C 122.5,186.5 122.5,182.5 122.5,178.5C 121.022,178.238 119.689,178.571 118.5,179.5C 118.047,181.565 117.047,183.232 115.5,184.5C 114.702,184.043 114.369,183.376 114.5,182.5C 116.085,181.526 117.085,180.026 117.5,178C 121.167,177.667 124.833,177.333 128.5,177C 129,176.5 129.5,176 130,175.5C 130.368,176.91 131.201,177.91 132.5,178.5C 135.391,177.994 138.058,176.994 140.5,175.5C 140.631,180.319 140.631,185.319 140.5,190.5C 139.209,190.737 138.209,190.404 137.5,189.5 Z"/></g>
<g><path style="opacity:1" fill="#e2813b" d="M 137.5,189.5 C 137.013,188.527 136.513,187.527 136,186.5C 135.601,186.728 135.435,187.062 135.5,187.5C 134.842,188.398 134.176,189.398 133.5,190.5C 131.854,189.221 130.687,187.555 130,185.5C 129.784,187.384 129.117,189.051 128,190.5C 126.646,186.637 126.146,182.637 126.5,178.5C 127.978,178.238 129.311,178.571 130.5,179.5C 131.236,181.541 132.069,183.541 133,185.5C 134.058,181.947 136.225,179.614 139.5,178.5C 140.08,182.649 139.414,186.316 137.5,189.5 Z"/></g>
<g><path style="opacity:1" fill="#6d6d6f" d="M 123.5,194.5 C 123.833,194.5 124.167,194.5 124.5,194.5C 125.466,197.125 126.466,197.125 127.5,194.5C 128.833,196.167 128.833,197.833 127.5,199.5C 126.522,199.023 125.689,198.357 125,197.5C 124.667,198.167 124.333,198.833 124,199.5C 123.506,197.866 123.34,196.199 123.5,194.5 Z"/></g>
<g><path style="opacity:1" fill="#59595b" d="M 69.5,194.5 C 72.5983,194.413 72.9316,194.913 70.5,196C 71.0164,198.033 70.3497,198.033 68.5,196C 69.056,195.617 69.3893,195.117 69.5,194.5 Z"/></g>
<g><path style="opacity:1" fill="#434345" d="M 79.5,194.5 C 80.224,196.218 80.8906,198.052 81.5,200C 81.1667,200.167 80.8333,200.333 80.5,200.5C 79.5344,198.604 79.2011,196.604 79.5,194.5 Z"/></g>
<g><path style="opacity:1" fill="#58585a" d="M 163.5,194.5 C 164.833,194.5 166.167,194.5 167.5,194.5C 166.744,196.613 166.577,198.613 167,200.5C 165.691,198.109 164.691,198.109 164,200.5C 163.505,198.527 163.338,196.527 163.5,194.5 Z"/></g>
<g><path style="opacity:1" fill="#6e6e70" d="M 116.5,197.5 C 116.631,198.239 116.464,198.906 116,199.5C 114.665,198.92 113.498,198.587 112.5,198.5C 113.316,193.947 114.649,193.613 116.5,197.5 Z"/></g>
<g><path style="opacity:1" fill="#4d4d4f" d="M 153.5,194.5 C 156.598,194.413 156.932,194.913 154.5,196C 156.991,196.626 156.991,197.459 154.5,198.5C 157.131,200.005 156.797,200.671 153.5,200.5C 153.5,198.5 153.5,196.5 153.5,194.5 Z"/></g>
<g><path style="opacity:1" fill="#58585a" d="M 142.5,194.5 C 143.762,197.071 145.095,197.071 146.5,194.5C 147.833,196.5 147.833,198.5 146.5,200.5C 145.833,199.5 145.167,198.5 144.5,197.5C 143.808,198.025 143.308,198.692 143,199.5C 142.506,197.866 142.34,196.199 142.5,194.5 Z"/></g>
<g><path style="opacity:1" fill="#727274" d="M 173.5,194.5 C 176.598,194.413 176.932,194.913 174.5,196C 175.167,196.333 175.833,196.667 176.5,197C 175.167,198 175.167,199 176.5,200C 175.552,200.483 174.552,200.649 173.5,200.5C 173.5,198.5 173.5,196.5 173.5,194.5 Z"/></g>
<g><path style="opacity:1" fill="#5e5e60" d="M 68.5,199.5 C 69.4971,198.287 70.4971,198.454 71.5,200C 70.4232,200.47 69.4232,200.303 68.5,199.5 Z"/></g>
<g><path style="opacity:1" fill="#5e5e60" d="M 94.5,196.5 C 93.891,199.966 92.0577,200.966 89,199.5C 88.5172,198.552 88.3505,197.552 88.5,196.5C 88.5,195.833 88.8333,195.5 89.5,195.5C 89.7828,194.711 90.2828,194.044 91,193.5C 92.3588,194.365 93.5255,195.365 94.5,196.5 Z"/></g>
<g><path style="opacity:1" fill="#f7f7f8" d="M 89.5,195.5 C 90.5,195.5 91.5,195.5 92.5,195.5C 91.5,200.833 90.5,200.833 89.5,195.5 Z"/></g>
<g><path style="opacity:1" fill="#5e5e60" d="M 101.5,195.5 C 102.568,194.566 103.901,194.232 105.5,194.5C 105.66,196.199 105.494,197.866 105,199.5C 100.825,200.803 99.6586,199.469 101.5,195.5 Z"/></g>
<g><path style="opacity:1" fill="#f3f3f4" d="M 101.5,195.5 C 104.598,195.413 104.932,195.913 102.5,197C 104.929,197.451 105.096,198.285 103,199.5C 101.812,198.437 101.312,197.103 101.5,195.5 Z"/></g>
</svg>
