<?xml version="1.0" encoding="UTF-8"?>
<svg version="1.1" xmlns="http://www.w3.org/2000/svg" width="120" height="105">
<path d="M0 0 C10.19599145 0.16132898 17.81299563 6.48357286 24.98046875 13.15625 C33.18346927 21.69156823 34.92618633 33.45968598 37.25 44.6875 C37.518125 45.93144531 37.78625 47.17539062 38.0625 48.45703125 C40.16901516 58.44148319 40.16901516 58.44148319 40 63.3125 C44.43727178 63.43006758 48.87413528 63.50020716 53.3125 63.5625 C54.55580078 63.59601563 55.79910156 63.62953125 57.08007812 63.6640625 C68.05057798 63.77923835 77.20576088 62.00053011 85.34375 54.24609375 C89.77234915 49.07591313 92.14919754 43.0065747 92.09765625 36.203125 C92.09443359 35.44902344 92.09121094 34.69492187 92.08789062 33.91796875 C92.07951172 33.14066406 92.07113281 32.36335938 92.0625 31.5625 C92.05798828 30.76972656 92.05347656 29.97695313 92.04882812 29.16015625 C92.03708565 27.21090492 92.01915146 25.26169262 92 23.3125 C91.13117188 23.28671875 90.26234375 23.2609375 89.3671875 23.234375 C77.45265236 22.6479773 77.45265236 22.6479773 73 18.3125 C70.88980401 15.11317059 69.81713944 13.44755338 70.43359375 9.62109375 C70.62050781 8.85925781 70.80742188 8.09742188 71 7.3125 C76.09029944 7.2384579 81.18028692 7.18394992 86.27099609 7.14770508 C88.00347349 7.1325991 89.73591254 7.11211306 91.46826172 7.08618164 C93.95549978 7.04987679 96.44223326 7.03279235 98.9296875 7.01953125 C100.09538773 6.99630547 100.09538773 6.99630547 101.28463745 6.97261047 C103.46826172 6.97192383 103.46826172 6.97192383 107 7.3125 C109.41838436 10.94007654 109.23503401 13.51178119 109.1171875 17.69140625 C109.10164825 18.4181102 109.08610901 19.14481415 109.07009888 19.89353943 C109.03328789 21.43445544 108.99089656 22.97524673 108.94335938 24.51586914 C108.87595539 26.84202864 108.83930217 29.16729304 108.8046875 31.49414062 C108.44970133 46.92401273 103.56899043 58.62549186 92.3515625 69.453125 C85.48431991 74.88303775 77.67126513 78.05598185 69.015625 78.84765625 C68.08105469 78.93466797 67.14648438 79.02167969 66.18359375 79.11132812 C65.21550781 79.19833984 64.24742188 79.28535156 63.25 79.375 C61.77466797 79.51131836 61.77466797 79.51131836 60.26953125 79.65039062 C57.84659453 79.87386537 55.42343149 80.09446733 53 80.3125 C53.804375 81.09625 54.60875 81.88 55.4375 82.6875 C58.21049876 85.52813288 58.906335 86.2587687 59.25 90.125 C58.97012888 93.69335677 58.15937817 95.48869778 56 98.3125 C55.34 98.3125 54.68 98.3125 54 98.3125 C54 98.9725 54 99.6325 54 100.3125 C50.09318196 101.17199997 47.58881939 101.50499865 43.75 100.25 C40.37452388 97.87182365 39.2812399 96.23158675 38 92.3125 C38 87.68060539 38.49428552 85.89222147 41.5625 82.375 C42.366875 81.694375 43.17125 81.01375 44 80.3125 C42.64455078 80.18294922 42.64455078 80.18294922 41.26171875 80.05078125 C40.08222656 79.91027344 38.90273438 79.76976563 37.6875 79.625 C36.51574219 79.49738281 35.34398437 79.36976562 34.13671875 79.23828125 C31 78.3125 31 78.3125 29.2265625 76.24609375 C27.69816274 72.59058987 26.63853273 68.89847985 25.6875 65.0625 C25.47875244 64.25272705 25.27000488 63.4429541 25.05493164 62.60864258 C23.79281356 57.65989661 22.62086322 52.69384779 21.484375 47.71484375 C21.22696533 46.60077148 20.96955566 45.48669922 20.7043457 44.33886719 C20.20178939 42.15072326 19.71032304 39.95999595 19.23120117 37.76660156 C17.44880094 29.99897182 15.27985631 24.54888505 8.8515625 19.40625 C5.82423378 17.61795455 2.56641456 16.82662966 -0.828125 15.98828125 C-3 15.3125 -3 15.3125 -5 13.3125 C-5.23046875 10.52734375 -5.23046875 10.52734375 -5.1875 7.25 C-5.18105469 6.16589844 -5.17460938 5.08179688 -5.16796875 3.96484375 C-4.90937185 -0.11858171 -3.75718332 0.12393487 0 0 Z " fill="#0E83D0" transform="translate(7,2.6875)"/>
<path d="M0 0 C5.09029944 -0.0740421 10.18028692 -0.12855008 15.27099609 -0.16479492 C17.00347349 -0.1799009 18.73591254 -0.20038694 20.46826172 -0.22631836 C22.95549978 -0.26262321 25.44223326 -0.27970765 27.9296875 -0.29296875 C29.09538773 -0.31619453 29.09538773 -0.31619453 30.28463745 -0.33988953 C32.46826172 -0.34057617 32.46826172 -0.34057617 36 0 C38.41838436 3.62757654 38.23503401 6.19928119 38.1171875 10.37890625 C38.10164825 11.1056102 38.08610901 11.83231415 38.07009888 12.58103943 C38.03328789 14.12195544 37.99089656 15.66274673 37.94335938 17.20336914 C37.87595539 19.52952864 37.83930217 21.85479304 37.8046875 24.18164062 C37.6142279 32.41593442 36.95102187 39.59824485 33 47 C32.484375 47.99 31.96875 48.98 31.4375 50 C30 52 30 52 27 54 C25.68 54 24.36 54 23 54 C22.67 54.66 22.34 55.32 22 56 C17.41176471 60 17.41176471 60 15 60 C13.80078125 57.35546875 13.80078125 57.35546875 13 54 C14.23046875 51.11328125 14.23046875 51.11328125 16.1875 48.3125 C16.82042969 47.38050781 17.45335938 46.44851562 18.10546875 45.48828125 C19.64812907 43.462148 21.05548622 41.63777358 23 40 C23.66 40 24.32 40 25 40 C24.505 27.625 24.505 27.625 24 15 C23.9175 17.92875 23.835 20.8575 23.75 23.875 C23.44995094 31.0201845 22.96610268 37.80389996 19 44 C18.01 44.495 18.01 44.495 17 45 C19 39 19 39 20.0625 36.34375 C21.23237368 32.17120055 21.21984024 28.42928763 21.125 24.125 C21.11597656 23.34125 21.10695313 22.5575 21.09765625 21.75 C21.07428063 19.83319945 21.03841653 17.91655809 21 16 C20.13117188 15.97421875 19.26234375 15.9484375 18.3671875 15.921875 C6.45265236 15.3354773 6.45265236 15.3354773 2 11 C-0.11019599 7.80067059 -1.18286056 6.13505338 -0.56640625 2.30859375 C-0.37949219 1.54675781 -0.19257812 0.78492188 0 0 Z " fill="#0E83D1" transform="translate(78,10)"/>
<path d="M0 0 C4.64285714 3.25 4.64285714 3.25 6.5 5.75 C6.75 8.875 6.75 8.875 6.5 11.75 C6.5 12.41 6.5 13.07 6.5 13.75 C7.16 14.100625 7.82 14.45125 8.5 14.8125 C10.84985193 17.08891906 10.8935269 17.76516635 11.0625 20.9375 C10.81510448 26.17546026 8.90859257 29.82656792 5.5 33.75 C-1.48310038 39.1968183 -7.87218342 39.50974742 -16.5 38.75 C-21.48302959 37.0947079 -25.97457586 33.69564661 -28.40625 29 C-31.0418649 22.75261652 -31.42564414 17.12042744 -29.4375 10.625 C-27.24678301 5.35066714 -23.2017743 2.06280244 -18.14453125 -0.39453125 C-12.27872299 -2.29203791 -5.76566601 -2.05916643 0 0 Z M-17.5 9.75 C-17.5 10.41 -17.5 11.07 -17.5 11.75 C-18.16 11.75 -18.82 11.75 -19.5 11.75 C-21.35832776 15.46665552 -21.07993204 19.7032215 -20.5 23.75 C-18.06543724 26.90835169 -15.80027757 28.54981495 -12.5 30.75 C-8.95776514 30.43372903 -5.87355726 29.87451909 -2.5 28.75 C-1.22607271 27.03430882 -1.22607271 27.03430882 -0.25 24.9375 C0.10578125 24.25042969 0.4615625 23.56335937 0.828125 22.85546875 C1.61193544 20.39922558 1.34119973 19.14957614 0.5 16.75 C-0.49 17.08 -1.48 17.41 -2.5 17.75 C-2.5 18.41 -2.5 19.07 -2.5 19.75 C-3.098125 20.03875 -3.69625 20.3275 -4.3125 20.625 C-6.69327792 21.79742026 -6.69327792 21.79742026 -9.5 23.75 C-12.1875 23.375 -12.1875 23.375 -14.5 22.75 C-14.875 20.5625 -14.875 20.5625 -14.5 17.75 C-12.55651499 16.01776336 -10.55279996 14.35118397 -8.5 12.75 C-7.12745412 10.60019503 -7.12745412 10.60019503 -6.5 8.75 C-7.53119607 7.50348985 -7.53119607 7.50348985 -9.75 7.5625 C-12.70562064 7.76401959 -14.82037079 8.52502665 -17.5 9.75 Z " fill="#EBEBEB" transform="translate(78.5,23.25)"/>
<path d="M0 0 C10.19599145 0.16132898 17.81299563 6.48357286 24.98046875 13.15625 C33.18346927 21.69156823 34.92618633 33.45968598 37.25 44.6875 C37.518125 45.93144531 37.78625 47.17539062 38.0625 48.45703125 C40.16901516 58.44148319 40.16901516 58.44148319 40 63.3125 C44.43737164 63.40067767 48.87451347 63.45328435 53.3125 63.5 C54.55580078 63.52513672 55.79910156 63.55027344 57.08007812 63.57617188 C64.88337087 63.63761512 71.60730733 62.85376795 79 60.3125 C78.505 61.3025 78.505 61.3025 78 62.3125 C77.34 62.3125 76.68 62.3125 76 62.3125 C75.67 63.3025 75.34 64.2925 75 65.3125 C32.21428571 65.3125 32.21428571 65.3125 30 64.3125 C28.30273706 60.57852153 27.76009256 57.39092654 28 53.3125 C27.34 53.3125 26.68 53.3125 26 53.3125 C23.13338053 47.08071855 22.54330649 41.5068885 22.18359375 34.6796875 C21.97472524 30.8489501 21.53158768 27.10955487 21 23.3125 C20.01 23.3125 19.02 23.3125 18 23.3125 C15.8125 21.5625 15.8125 21.5625 14 19.3125 C14 17.9925 14 16.6725 14 15.3125 C14.66 15.3125 15.32 15.3125 16 15.3125 C16 13.6625 16 12.0125 16 10.3125 C15.34773438 10.11914062 14.69546875 9.92578125 14.0234375 9.7265625 C9.3228602 8.32609552 4.64159109 6.90041274 0 5.3125 C0 7.6225 0 9.9325 0 12.3125 C3.3 12.9725 6.6 13.6325 10 14.3125 C10 15.3025 10 16.2925 10 17.3125 C8.4365085 17.22445873 6.87414611 17.11626854 5.3125 17 C4.44238281 16.94199219 3.57226562 16.88398438 2.67578125 16.82421875 C-0.55843303 16.20570478 -2.46896494 15.43748666 -5 13.3125 C-5.5234375 10.4296875 -5.5234375 10.4296875 -5.375 7.1875 C-5.34148438 6.11242187 -5.30796875 5.03734375 -5.2734375 3.9296875 C-4.85243059 -0.09995003 -3.74700162 0.12359901 0 0 Z " fill="#0F82D0" transform="translate(7,2.6875)"/>
<path d="M0 0 C10.19599145 0.16132898 17.81299563 6.48357286 24.98046875 13.15625 C33.18346927 21.69156823 34.92618633 33.45968598 37.25 44.6875 C37.518125 45.93144531 37.78625 47.17539062 38.0625 48.45703125 C40.16901516 58.44148319 40.16901516 58.44148319 40 63.3125 C44.43737164 63.40067767 48.87451347 63.45328435 53.3125 63.5 C54.55580078 63.52513672 55.79910156 63.55027344 57.08007812 63.57617188 C64.88337087 63.63761512 71.60730733 62.85376795 79 60.3125 C78.505 61.3025 78.505 61.3025 78 62.3125 C77.34 62.3125 76.68 62.3125 76 62.3125 C75.67 63.3025 75.34 64.2925 75 65.3125 C69.74894558 65.33714928 64.49792455 65.35533568 59.24682617 65.36743164 C57.45905979 65.37247218 55.67129755 65.37930454 53.88354492 65.38793945 C51.31948832 65.4000173 48.75548603 65.40573094 46.19140625 65.41015625 C44.98515343 65.41789818 44.98515343 65.41789818 43.75453186 65.42579651 C41.83598285 65.42599215 39.91754632 65.37451983 38 65.3125 C36.45627868 63.76877868 36.43278802 61.98822274 36 59.875 C35.50571219 57.46920855 35.09957877 55.51165754 34 53.3125 C33.77049681 51.108136 33.58924067 48.89857827 33.4375 46.6875 C33.35371094 45.49898437 33.26992188 44.31046875 33.18359375 43.0859375 C33.12300781 42.17070313 33.06242187 41.25546875 33 40.3125 C32.67 40.3125 32.34 40.3125 32 40.3125 C31.63631108 38.71046533 31.28438048 37.10575797 30.9375 35.5 C30.74027344 34.60667969 30.54304688 33.71335938 30.33984375 32.79296875 C30 30.3125 30 30.3125 31 27.3125 C30.34 27.3125 29.68 27.3125 29 27.3125 C28.54625 26.178125 28.0925 25.04375 27.625 23.875 C26.42904194 20.26528308 26.42904194 20.26528308 24 19.3125 C22.96708324 17.32929982 21.9662501 15.32902194 21 13.3125 C20.67 12.9825 20.34 12.6525 20 12.3125 C19.01 12.3125 18.02 12.3125 17 12.3125 C16.175 11.714375 15.35 11.11625 14.5 10.5 C10.18495407 7.42251801 5.08659128 6.50721539 0 5.3125 C0 7.6225 0 9.9325 0 12.3125 C3.3 12.9725 6.6 13.6325 10 14.3125 C10 15.3025 10 16.2925 10 17.3125 C8.4365085 17.22445873 6.87414611 17.11626854 5.3125 17 C4.44238281 16.94199219 3.57226562 16.88398438 2.67578125 16.82421875 C-0.55843303 16.20570478 -2.46896494 15.43748666 -5 13.3125 C-5.5234375 10.4296875 -5.5234375 10.4296875 -5.375 7.1875 C-5.34148438 6.11242187 -5.30796875 5.03734375 -5.2734375 3.9296875 C-4.85243059 -0.09995003 -3.74700162 0.12359901 0 0 Z " fill="#1D7DC1" transform="translate(7,2.6875)"/>
<path d="M0 0 C3.47691229 0.29802105 5.01512296 1.0117623 7.8125 3.1875 C10.38153045 6.49053916 10.45289181 7.92397372 10 12 C10 12.66 10 13.32 10 14 C10.66 14.350625 11.32 14.70125 12 15.0625 C14.34985193 17.33891906 14.3935269 18.01516635 14.5625 21.1875 C14.31548886 26.4173221 12.41611476 30.08956373 9 34 C7.05816596 35.61440535 5.21887374 36.76155884 3 38 C2.34 37.67 1.68 37.34 1 37 C1.66666667 35 2.33333333 33 3 31 C3 30.01 3 29.02 3 28 C2.34 28.33 1.68 28.66 1 29 C1.309375 28.29875 1.61875 27.5975 1.9375 26.875 C3.03302678 23.91063343 3.56422992 21.12301892 4 18 C3.01 18 2.02 18 1 18 C1 18.66 1 19.32 1 20 C-1.09642476 22.0480922 -3.40171773 23.64975393 -6 25 C-10.18181818 24.81818182 -10.18181818 24.81818182 -12 23 C-12.375 20.75 -12.375 20.75 -12 18 C-9.625 15.1875 -9.625 15.1875 -7 13 C-6.34 13 -5.68 13 -5 13 C-4.67 11.35 -4.34 9.7 -4 8 C0.75 8.75 0.75 8.75 3 11 C2.67 11.61875 2.34 12.2375 2 12.875 C0.85806765 14.91018344 0.85806765 14.91018344 1 17 C2.65 15.68 4.3 14.36 6 13 C5.67 12.34 5.34 11.68 5 11 C6.32 11 7.64 11 9 11 C7.23711091 8.10091911 7.23711091 8.10091911 5.375 6.5 C4 5 4 5 4 2 C2.68 1.34 1.36 0.68 0 0 Z " fill="#C7C7C6" transform="translate(75,23)"/>
<path d="M0 0 C2.98993087 3.06861326 4.86840484 5.5195545 5.25 9.8125 C4.96260574 13.47677686 4.25644822 15.1210833 2 18 C-1.06977471 20.55814559 -2.47004987 21.01892679 -6.5 20.875 C-9.90588903 20.02352774 -12.18505952 19.06980918 -15 17 C-16.74476571 13.51046858 -16.57489133 9.80705813 -16 6 C-14.39143497 2.8858181 -12.3095877 0.65479385 -9.125 -0.9375 C-5.86303593 -1.03344012 -3.18080697 -0.79520174 0 0 Z " fill="#C3C4C2" transform="translate(97,83)"/>
<path d="M0 0 C5.09029944 -0.0740421 10.18028692 -0.12855008 15.27099609 -0.16479492 C17.00347349 -0.1799009 18.73591254 -0.20038694 20.46826172 -0.22631836 C22.95549978 -0.26262321 25.44223326 -0.27970765 27.9296875 -0.29296875 C29.09538773 -0.31619453 29.09538773 -0.31619453 30.28463745 -0.33988953 C32.46826172 -0.34057617 32.46826172 -0.34057617 36 0 C38.41838436 3.62757654 38.23503401 6.19928119 38.1171875 10.37890625 C38.10164825 11.1056102 38.08610901 11.83231415 38.07009888 12.58103943 C38.03328789 14.12195544 37.99089656 15.66274673 37.94335938 17.20336914 C37.87595539 19.52952864 37.83930217 21.85479304 37.8046875 24.18164062 C37.56175445 34.71808294 36.49342451 43.97133088 29 52 C28.34 50.68 27.68 49.36 27 48 C27.66 48 28.32 48 29 48 C29.103125 46.741875 29.20625 45.48375 29.3125 44.1875 C29.73368298 40.71426646 30.26736864 39.2771928 33 37 C34.25346532 33.46509239 34.11396105 29.98311908 34.09765625 26.265625 C34.09515869 25.09805664 34.09266113 23.93048828 34.09008789 22.72753906 C34.08098389 21.24995117 34.07187988 19.77236328 34.0625 18.25 C34.041875 13.5475 34.02125 8.845 34 4 C24.1 4 14.2 4 4 4 C4.66 5.65 5.32 7.3 6 9 C6.21398437 9.74765625 6.42796875 10.4953125 6.6484375 11.265625 C8.00062539 13.40073668 8.00062539 13.40073668 11.4765625 13.609375 C12.858573 13.67581781 14.2416781 13.7219252 15.625 13.75 C16.33140625 13.77964844 17.0378125 13.80929688 17.765625 13.83984375 C19.50980047 13.91055357 21.25490827 13.95754035 23 14 C23.86331804 36.81151896 23.86331804 36.81151896 19 44 C18.01 44.495 18.01 44.495 17 45 C19 39 19 39 20.0625 36.34375 C21.23237368 32.17120055 21.21984024 28.42928763 21.125 24.125 C21.11597656 23.34125 21.10695313 22.5575 21.09765625 21.75 C21.07428063 19.83319945 21.03841653 17.91655809 21 16 C20.13117188 15.97421875 19.26234375 15.9484375 18.3671875 15.921875 C6.45265236 15.3354773 6.45265236 15.3354773 2 11 C-0.11019599 7.80067059 -1.18286056 6.13505338 -0.56640625 2.30859375 C-0.37949219 1.54675781 -0.19257812 0.78492188 0 0 Z " fill="#3177AA" transform="translate(78,10)"/>
<path d="M0 0 C2.87533913 3.01559957 3.85057914 4.95405399 4.4375 9.0625 C3.94297818 12.38286079 3.03285917 14.34164571 1 17 C0.34 17 -0.32 17 -1 17 C-1 17.66 -1 18.32 -1 19 C-4.90681804 19.85949997 -7.41118061 20.19249865 -11.25 18.9375 C-14.62547612 16.55932365 -15.7187601 14.91908675 -17 11 C-16.84404512 6.47730859 -16.32587412 3.2026936 -13 0 C-8.64572385 -1.44520943 -4.38042218 -1.30207045 0 0 Z " fill="#E2E3E2" transform="translate(62,84)"/>
<path d="M0 0 C0 3.89437784 -1.07201777 4.56329484 -3.75 7.3125 C-11.03869985 14.39328131 -19.81364605 18.63826194 -29.9140625 19.5 C-30.83960938 19.5825 -31.76515625 19.665 -32.71875 19.75 C-34.66400523 19.91733378 -36.60931841 20.08399517 -38.5546875 20.25 C-39.93914062 20.37375 -39.93914062 20.37375 -41.3515625 20.5 C-42.19541504 20.5721875 -43.03926758 20.644375 -43.90869141 20.71875 C-46.05479238 20.89239225 -46.05479238 20.89239225 -48 22 C-50.3329866 22.04022391 -52.66706666 22.04320247 -55 22 C-55 21.67 -55 21.34 -55 21 C-59.29 20.34 -63.58 19.68 -68 19 C-68 18.67 -68 18.34 -68 18 C-66.73542969 17.94392578 -66.73542969 17.94392578 -65.4453125 17.88671875 C-63.80175781 17.78810547 -63.80175781 17.78810547 -62.125 17.6875 C-61.03445312 17.62949219 -59.94390625 17.57148437 -58.8203125 17.51171875 C-57.88960937 17.34285156 -56.95890625 17.17398438 -56 17 C-55.34 16.01 -54.68 15.02 -54 14 C-53.48953125 14.16113281 -52.9790625 14.32226562 -52.453125 14.48828125 C-43.73102267 16.30770068 -33.86179703 15.1703917 -25.0625 14.125 C-24.3705957 14.04660889 -23.67869141 13.96821777 -22.96582031 13.88745117 C-21.29875873 13.66757949 -19.64610141 13.34320261 -18 13 C-17.67 12.34 -17.34 11.68 -17 11 C-16.34 11 -15.68 11 -15 11 C-14.773125 10.38125 -14.54625 9.7625 -14.3125 9.125 C-12.60391383 6.35871763 -11.00007779 6.09758944 -8 5 C-7.505 4.505 -7.01 4.01 -6.5 3.5 C-4.5653616 1.5653616 -2.55534033 0.89782228 0 0 Z " fill="#1380C2" transform="translate(106,62)"/>
<path d="M0 0 C0.66 0.33 1.32 0.66 2 1 C2 9.25 2 17.5 2 26 C1.34 26 0.68 26 0 26 C-0.25394531 26.56976563 -0.50789063 27.13953125 -0.76953125 27.7265625 C-2.14210007 30.26254679 -3.80311052 32.19629411 -5.6875 34.375 C-8.60723091 37.86587338 -8.60723091 37.86587338 -8.8125 42.3125 C-8.544375 43.199375 -8.27625 44.08625 -8 45 C-8.9375 47.375 -8.9375 47.375 -10 49 C-10.66 49 -11.32 49 -12 49 C-12.33 49.99 -12.66 50.98 -13 52 C-16.3 52 -19.6 52 -23 52 C-21.02 51.505 -21.02 51.505 -19 51 C-19.495 49.515 -19.495 49.515 -20 48 C-19.34 48 -18.68 48 -18 48 C-18 47.01 -18 46.02 -18 45 C-18.66 44.67 -19.32 44.34 -20 44 C-16.71636852 39.87441173 -13.71141734 36.69790543 -9.375 33.6875 C-4.3203605 29.7901517 -2.21434432 26.27164414 -1 20 C-0.31462222 13.35264504 -0.11276569 6.67845048 0 0 Z " fill="#0E82D0" transform="translate(101,24)"/>
<path d="M0 0 C0 1.65 0 3.3 0 5 C0.495 4.835 0.99 4.67 1.5 4.5 C4 4 4 4 7.75 4.125 C12.36638469 4.21177415 15.78413702 2.80679842 20 1 C20 3.64 20 6.28 20 9 C19.01 9.495 19.01 9.495 18 10 C17.01 11.485 17.01 11.485 16 13 C10.36731534 13.87444475 4.02182444 13.9980154 -1.1875 11.4375 C-4.75493065 8.34572677 -5.20971559 6.56608768 -6 2 C-3 0 -3 0 0 0 Z " fill="#E1E2E2" transform="translate(59,49)"/>
<path d="M0 0 C7.91038179 5.49332069 9.72062386 12.66171548 11.5625 21.625 C11.98407201 23.58470062 12.40594588 25.54433633 12.828125 27.50390625 C13.02728516 28.44637207 13.22644531 29.38883789 13.43164062 30.35986328 C14.37484931 34.74124589 15.45065654 39.08913742 16.51953125 43.44140625 C17.00512142 46.02727259 17.03366815 48.3763479 17 51 C21.43737164 51.08817767 25.87451347 51.14078435 30.3125 51.1875 C31.55580078 51.21263672 32.79910156 51.23777344 34.08007812 51.26367188 C41.88337087 51.32511512 48.60730733 50.54126795 56 48 C55.505 48.99 55.505 48.99 55 50 C54.34 50 53.68 50 53 50 C52.67 50.99 52.34 51.98 52 53 C46.74894558 53.02464928 41.49792455 53.04283568 36.24682617 53.05493164 C34.45905979 53.05997218 32.67129755 53.06680454 30.88354492 53.07543945 C28.31948832 53.0875173 25.75548603 53.09323094 23.19140625 53.09765625 C21.98515343 53.10539818 21.98515343 53.10539818 20.75453186 53.11329651 C18.83598285 53.11349215 16.91754632 53.06201983 15 53 C13.45627868 51.45627868 13.43278802 49.67572274 13 47.5625 C12.50571219 45.15670855 12.09957877 43.19915754 11 41 C10.77049681 38.795636 10.58924067 36.58607827 10.4375 34.375 C10.31181641 32.59222656 10.31181641 32.59222656 10.18359375 30.7734375 C10.12300781 29.85820313 10.06242187 28.94296875 10 28 C9.67 28 9.34 28 9 28 C6.94249201 18.70447284 6.94249201 18.70447284 7.25 14.9375 C6.89781613 10.79933958 4.82242447 8.35268031 2.41015625 5.05078125 C1 3 1 3 0 0 Z " fill="#174F7B" transform="translate(30,15)"/>
<path d="M0 0 C1.53051646 1.53051646 1.28000829 2.9324935 1.375 5.0625 C1.30664624 10.42826991 -0.49956838 13.99304597 -4 18 C-5.94183404 19.61440535 -7.78112626 20.76155884 -10 22 C-10.66 21.67 -11.32 21.34 -12 21 C-11.33333333 19 -10.66666667 17 -10 15 C-10 14.01 -10 13.02 -10 12 C-10.99 12.495 -10.99 12.495 -12 13 C-11.71125 12.319375 -11.4225 11.63875 -11.125 10.9375 C-9.90374133 7.90250143 -9.90374133 7.90250143 -9 4.25 C-8.67 3.1775 -8.34 2.105 -8 1 C-5.26752652 -0.36623674 -3.01801098 -0.128426 0 0 Z " fill="#C0C0BE" transform="translate(88,39)"/>
<path d="M0 0 C0.66 0.33 1.32 0.66 2 1 C0.73046875 2.49739583 -0.5390625 3.99479167 -1.80859375 5.4921875 C-4.29671731 8.64109142 -4.08536092 11.07339757 -4 15 C-3.34 15 -2.68 15 -2 15 C-1.67 14.34 -1.34 13.68 -1 13 C-0.01 14.485 -0.01 14.485 1 16 C1.66 14.68 2.32 13.36 3 12 C3.01417969 12.59167969 3.02835938 13.18335938 3.04296875 13.79296875 C3.31136533 18.23964718 3.51110711 20.41082139 6.4375 23.9375 C7.283125 24.618125 8.12875 25.29875 9 26 C9.66 26.66 10.32 27.32 11 28 C8.69 28 6.38 28 4 28 C4 26.35 4 24.7 4 23 C0.24848856 24.78907722 0.24848856 24.78907722 -1.8125 28.1875 C-1.874375 28.785625 -1.93625 29.38375 -2 30 C-6.38178276 24.48743459 -7.42845827 19.63653059 -6.78125 12.6328125 C-5.81551775 7.11699561 -3.88903406 3.99137706 0 0 Z " fill="#9D9D9D" transform="translate(55,26)"/>
<path d="M0 0 C1.58294782 -0.05437607 3.16644256 -0.09296271 4.75 -0.125 C5.63171875 -0.14820312 6.5134375 -0.17140625 7.421875 -0.1953125 C10.16772993 0.01270681 11.70495111 0.50366857 14 2 C15.02304948 3.65261839 16.02616054 5.31791365 17 7 C17.66 7 18.32 7 19 7 C19 11 19 11 16.6875 13.6875 C14 16 14 16 11 17 C10.375 15.125 10.375 15.125 10 13 C10.66 12.34 11.32 11.68 12 11 C9.57869669 8.57869669 8.19888623 8.47159496 4.875 7.875 C3.50988281 7.62363281 3.50988281 7.62363281 2.1171875 7.3671875 C1.41851562 7.24601562 0.71984375 7.12484375 0 7 C1.65 5.35 3.3 3.7 5 2 C3.35 1.67 1.7 1.34 0 1 C0 0.67 0 0.34 0 0 Z " fill="#E8E8E8" transform="translate(65,23)"/>
<path d="M0 0 C11.88 0 23.76 0 36 0 C36 0.33 36 0.66 36 1 C24.45 1 12.9 1 1 1 C2.88984878 6.66954633 3.74950946 8.28082078 8 12 C10.83269666 13.41634833 13.47466438 13.3463005 16.625 13.5625 C17.81351563 13.64628906 19.00203125 13.73007812 20.2265625 13.81640625 C21.14179687 13.87699219 22.05703125 13.93757813 23 14 C23.86331804 36.81151896 23.86331804 36.81151896 19 44 C18.01 44.495 18.01 44.495 17 45 C19 39 19 39 20.0625 36.34375 C21.23237368 32.17120055 21.21984024 28.42928763 21.125 24.125 C21.11597656 23.34125 21.10695313 22.5575 21.09765625 21.75 C21.07428063 19.83319945 21.03841653 17.91655809 21 16 C20.13117188 15.97421875 19.26234375 15.9484375 18.3671875 15.921875 C6.45265236 15.3354773 6.45265236 15.3354773 2 11 C-0.97174942 6.49444443 -1.10112698 5.50563489 0 0 Z " fill="#021833" transform="translate(78,10)"/>
<path d="M0 0 C6.45819268 0.07210103 11.73190559 2.32100246 16.5625 6.5625 C17.036875 7.14 17.51125 7.7175 18 8.3125 C17.01 8.8075 17.01 8.8075 16 9.3125 C15.67 8.6525 15.34 7.9925 15 7.3125 C12.14258915 6.5111381 9.33288557 5.81541494 6.4375 5.1875 C5.63119141 5.00574219 4.82488281 4.82398438 3.99414062 4.63671875 C1.99776175 4.18782882 -0.0009198 3.74920257 -2 3.3125 C-1.67 6.6125 -1.34 9.9125 -1 13.3125 C0.7015625 13.745625 0.7015625 13.745625 2.4375 14.1875 C3.613125 14.55875 4.78875 14.93 6 15.3125 C6.33 15.9725 6.66 16.6325 7 17.3125 C5.3733152 17.03038123 3.74867104 16.73647625 2.125 16.4375 C1.22007813 16.27507813 0.31515625 16.11265625 -0.6171875 15.9453125 C-3 15.3125 -3 15.3125 -5 13.3125 C-5.23046875 10.52734375 -5.23046875 10.52734375 -5.1875 7.25 C-5.18105469 6.16589844 -5.17460938 5.08179688 -5.16796875 3.96484375 C-4.90937185 -0.11858171 -3.75718332 0.12393487 0 0 Z " fill="#35709F" transform="translate(7,2.6875)"/>
<path d="M0 0 C2 2 2 2 2.19873047 5.18945312 C2.18345164 6.55357066 2.15535412 7.9175809 2.1171875 9.28125 C2.10164825 10.0093689 2.08610901 10.73748779 2.07009888 11.4876709 C2.03323373 13.03456144 1.99082869 14.58132823 1.94335938 16.12792969 C1.87606745 18.46295954 1.83934197 20.79710114 1.8046875 23.1328125 C1.56203072 33.68739265 0.50733132 42.95643073 -7 51 C-7.66 49.68 -8.32 48.36 -9 47 C-8.34 47 -7.68 47 -7 47 C-6.896875 45.741875 -6.79375 44.48375 -6.6875 43.1875 C-6.25118948 39.62221973 -5.64585588 38.43418741 -3 36 C-1.38432952 31.25051765 -0.71930281 26.97385532 -0.5859375 21.97265625 C-0.54726562 20.68681641 -0.50859375 19.40097656 -0.46875 18.07617188 C-0.43730501 16.73828582 -0.40605741 15.40039511 -0.375 14.0625 C-0.33675658 12.69724244 -0.2977013 11.33200736 -0.2578125 9.96679688 C-0.16390063 6.6446646 -0.07822213 3.32253259 0 0 Z " fill="#134A76" transform="translate(114,11)"/>
<path d="M0 0 C0.66 0.33 1.32 0.66 2 1 C0.75264433 1.6509259 -0.49801832 2.29551669 -1.75 2.9375 C-2.44609375 3.29714844 -3.1421875 3.65679687 -3.859375 4.02734375 C-7.47620371 5.6707568 -10.97505493 6.16393537 -14.9140625 6.5 C-16.30238281 6.62375 -16.30238281 6.62375 -17.71875 6.75 C-19.66400523 6.91733378 -21.60931841 7.08399517 -23.5546875 7.25 C-24.47765625 7.3325 -25.400625 7.415 -26.3515625 7.5 C-27.61734131 7.60828125 -27.61734131 7.60828125 -28.90869141 7.71875 C-31.05479238 7.89239225 -31.05479238 7.89239225 -33 9 C-35.3329866 9.04022391 -37.66706666 9.04320247 -40 9 C-40 8.67 -40 8.34 -40 8 C-44.29 7.34 -48.58 6.68 -53 6 C-53 5.67 -53 5.34 -53 5 C-40.13 5 -27.26 5 -14 5 C-14 4.34 -14 3.68 -14 3 C-13.15695313 2.86722656 -12.31390625 2.73445313 -11.4453125 2.59765625 C-10.34960938 2.42105469 -9.25390625 2.24445313 -8.125 2.0625 C-6.48917969 1.80146484 -6.48917969 1.80146484 -4.8203125 1.53515625 C-2.06178454 1.14448841 -2.06178454 1.14448841 0 0 Z " fill="#0D3252" transform="translate(91,75)"/>
<path d="M0 0 C0.66 0.33 1.32 0.66 2 1 C2 9.25 2 17.5 2 26 C1.34 26 0.68 26 0 26 C-0.3403125 26.804375 -0.3403125 26.804375 -0.6875 27.625 C-3.76449138 33.19288917 -6.98981586 36.72948599 -13 39 C-13.66 38.67 -14.32 38.34 -15 38 C-14.32453125 37.53851563 -13.6490625 37.07703125 -12.953125 36.6015625 C-6.4577755 31.85207284 -2.48686659 28.03867229 -1 20 C-0.32535869 13.3509299 -0.11277981 6.67928707 0 0 Z " fill="#2670A7" transform="translate(101,24)"/>
<path d="M0 0 C2.77825806 1.64450426 3.85353382 2.46559636 4.72265625 5.63671875 C4.83480469 6.64347656 4.94695313 7.65023437 5.0625 8.6875 C5.66953657 13.19149452 6.59889381 16.94025049 8.33984375 21.11328125 C9.46553094 24.33048193 9.64440622 27.62185906 10 31 C10.33 31.33 10.66 31.66 11 32 C11.07226502 33.85287502 11.0838122 35.70833878 11.0625 37.5625 C11.05347656 38.57441406 11.04445313 39.58632812 11.03515625 40.62890625 C11.02355469 41.41136719 11.01195312 42.19382813 11 43 C6.07970554 34.13479984 4.61304074 22.54840531 2.25 12.75 C2.02723389 11.8329126 1.80446777 10.9158252 1.57495117 9.97094727 C1.36974854 9.10912842 1.1645459 8.24730957 0.953125 7.359375 C0.76911133 6.59077148 0.58509766 5.82216797 0.39550781 5.03027344 C0 3 0 3 0 0 Z " fill="#205A8A" transform="translate(25,33)"/>
<path d="M0 0 C11.70615034 1.55808656 11.70615034 1.55808656 16 6 C13 7 13 7 12 7 C12.66 7.66 13.32 8.32 14 9 C12.02 9.99 12.02 9.99 10 11 C10 10.34 10 9.68 10 9 C8.72125 8.855625 7.4425 8.71125 6.125 8.5625 C3.74307106 8.29357254 2.15547309 8.07773654 0 7 C0 4.69 0 2.38 0 0 Z " fill="#0F84D4" transform="translate(7,8)"/>
<path d="M0 0 C1.32090329 4.1094769 0.75049188 6.41072307 -1.0625 10.25 C-3.3804761 12.34365584 -4.15171119 12.25 -7.1875 12.25 C-8.445625 12.1675 -9.70375 12.085 -11 12 C-10.67 10.35 -10.34 8.7 -10 7 C-10.66 7 -11.32 7 -12 7 C-12 6.34 -12 5.68 -12 5 C-10.35 5 -8.7 5 -7 5 C-7 4.34 -7 3.68 -7 3 C-4.69 2.01 -2.38 1.02 0 0 Z " fill="#D3D4D1" transform="translate(78,50)"/>
<path d="M0 0 C0 0.33 0 0.66 0 1 C-1.65 1.33 -3.3 1.66 -5 2 C-4.67 2.66 -4.34 3.32 -4 4 C-4.99 4.495 -4.99 4.495 -6 5 C-5.34 6.32 -4.68 7.64 -4 9 C-5.06541016 9.18175781 -5.06541016 9.18175781 -6.15234375 9.3671875 C-7.07144531 9.53476562 -7.99054688 9.70234375 -8.9375 9.875 C-10.31228516 10.11863281 -10.31228516 10.11863281 -11.71484375 10.3671875 C-12.46894531 10.57601562 -13.22304688 10.78484375 -14 11 C-14.33 11.66 -14.66 12.32 -15 13 C-14.67 11.02 -14.34 9.04 -14 7 C-14.66 6.67 -15.32 6.34 -16 6 C-16 5.34 -16 4.68 -16 4 C-16.66 3.67 -17.32 3.34 -18 3 C-12.27544841 -0.81636773 -6.70250505 -0.29282789 0 0 Z " fill="#B4B4B1" transform="translate(75,22)"/>
<path d="M0 0 C1.65 0 3.3 0 5 0 C5 0.99 5 1.98 5 3 C5.66 3.33 6.32 3.66 7 4 C7 4.99 7 5.98 7 7 C7.66 7 8.32 7 9 7 C8.67 9.64 8.34 12.28 8 15 C7.01 14.34 6.02 13.68 5 13 C2.84725052 13.30840599 2.84725052 13.30840599 1 14 C0.71125 13.195625 0.4225 12.39125 0.125 11.5625 C-0.73262568 8.8673532 -0.73262568 8.8673532 -3 8 C-1.625 6.5 -1.625 6.5 0 5 C0.66 5 1.32 5 2 5 C2.33 4.01 2.66 3.02 3 2 C2.01 1.34 1.02 0.68 0 0 Z " fill="#E9EAE9" transform="translate(55,84)"/>
<path d="M0 0 C0.33 0 0.66 0 1 0 C1.50866669 2.35258344 2.0070625 4.70661404 2.5 7.0625 C2.64308594 7.71927734 2.78617188 8.37605469 2.93359375 9.05273438 C3.06894531 9.70693359 3.20429687 10.36113281 3.34375 11.03515625 C3.46943359 11.6269165 3.59511719 12.21867676 3.72460938 12.82836914 C4.10939592 15.86265665 4 18.94141186 4 22 C23.305 22.495 23.305 22.495 43 23 C43 23.33 43 23.66 43 24 C37.32169922 24.02464705 31.64342931 24.04283462 25.96508789 24.05493164 C24.03181415 24.05997256 22.09854424 24.06680519 20.1652832 24.07543945 C17.39273128 24.08751565 14.62022959 24.09323057 11.84765625 24.09765625 C10.54297142 24.10539818 10.54297142 24.10539818 9.21192932 24.11329651 C7.14094186 24.11349185 5.07005676 24.06208168 3 24 C0.57616482 21.57616482 1.46645135 15.40570963 1.28125 12.125 C1.34864552 9.1350199 1.34864552 9.1350199 0 8 C-0.14115161 5.32941149 -0.04247107 2.67567762 0 0 Z " fill="#2B85BE" transform="translate(34,56)"/>
<path d="M0 0 C2.77315591 0.05996013 5.54089706 0.14693312 8.3125 0.25 C9.09818359 0.26417969 9.88386719 0.27835938 10.69335938 0.29296875 C16.40196533 0.53588815 16.40196533 0.53588815 19.0234375 2.5703125 C20.37227223 5.92621331 20.39766385 9.06855742 20.3125 12.625 C20.31733398 13.6459375 20.31733398 13.6459375 20.32226562 14.6875 C20.26742788 19.73257212 20.26742788 19.73257212 18 22 C17.67 16.39 17.34 10.78 17 5 C13.6278125 4.8453125 13.6278125 4.8453125 10.1875 4.6875 C3.50136542 4.38079658 3.50136542 4.38079658 1.05078125 2.51953125 C0 1 0 1 0 0 Z " fill="#217EBE" transform="translate(85,20)"/>
<path d="M0 0 C2.36810318 0.94724127 3.75207953 1.65291134 5.25 3.75 C6.63590422 7.90771267 6.51689307 10.91922359 4.625 14.875 C4.08875 15.57625 3.5525 16.2775 3 17 C2.34 17 1.68 17 1 17 C1 17.66 1 18.32 1 19 C-4.44893869 20.19876651 -7.22169095 19.91360308 -12 17 C-12 16.01 -12 15.02 -12 14 C-11.34 14 -10.68 14 -10 14 C-9.67 14.66 -9.34 15.32 -9 16 C-2.91591528 16.19814261 -2.91591528 16.19814261 3 15 C2.67 13.68 2.34 12.36 2 11 C2.66 11 3.32 11 4 11 C4 9.68 4 8.36 4 7 C3.34 7 2.68 7 2 7 C2 6.01 2 5.02 2 4 C1.01 3.67 0.02 3.34 -1 3 C-0.67 2.01 -0.34 1.02 0 0 Z " fill="#B0B0B0" transform="translate(60,84)"/>
<path d="M0 0 C0.33 0 0.66 0 1 0 C1 3.96 1 7.92 1 12 C1.66 12 2.32 12 3 12 C3 12.66 3 13.32 3 14 C3.66 14 4.32 14 5 14 C4.34 12.35 3.68 10.7 3 9 C3.66 9 4.32 9 5 9 C5 9.66 5 10.32 5 11 C5.66 11 6.32 11 7 11 C5.64908476 15.42117715 3.8349855 17.443343 0 20 C-2.3125 20.75 -2.3125 20.75 -4 21 C-3.42415568 18.61435923 -2.77772405 16.33317216 -2 14 C-2 13.01 -2 12.02 -2 11 C-2.99 11.495 -2.99 11.495 -4 12 C-3.71125 11.319375 -3.4225 10.63875 -3.125 9.9375 C-1.87402645 6.67106907 -0.92552045 3.37153877 0 0 Z " fill="#989896" transform="translate(80,40)"/>
<path d="M0 0 C-0.33 0.99 -0.66 1.98 -1 3 C-8.1274075 4.00333682 -14.88558172 3.9564381 -22.0625 3.5625 C-23.64708008 3.48418945 -23.64708008 3.48418945 -25.26367188 3.40429688 C-27.84284382 3.2759218 -30.42149436 3.14102952 -33 3 C-33 2.34 -33 1.68 -33 1 C-28.78249212 0.85694335 -24.56496269 0.71454463 -20.34741211 0.57275391 C-18.9128357 0.52443202 -17.47826532 0.47593077 -16.04370117 0.42724609 C-13.98097266 0.35727469 -11.91822328 0.28794962 -9.85546875 0.21875 C-7.99378052 0.1559082 -7.99378052 0.1559082 -6.09448242 0.09179688 C-4.06365121 0.03155289 -2.03172457 0 0 0 Z " fill="#247DB8" transform="translate(80,67)"/>
<path d="M0 0 C0.721875 0.268125 1.44375 0.53625 2.1875 0.8125 C2.5175 2.4625 2.8475 4.1125 3.1875 5.8125 C0.1875 7.8125 0.1875 7.8125 -2.8125 7.8125 C-3.1425 8.4725 -3.4725 9.1325 -3.8125 9.8125 C-4.4725 9.4825 -5.1325 9.1525 -5.8125 8.8125 C-6.1425 9.4725 -6.4725 10.1325 -6.8125 10.8125 C-7.8125 9.8125 -7.8125 9.8125 -8.1875 7.5625 C-7.8125 4.8125 -7.8125 4.8125 -5.625 1.9375 C-2.8125 -0.1875 -2.8125 -0.1875 0 0 Z " fill="#EAEAE9" transform="translate(70.8125,36.1875)"/>
<path d="M0 0 C0.86625 0.4640625 0.86625 0.4640625 1.75 0.9375 C3.87441241 2.08380151 3.87441241 2.08380151 5.8828125 2.234375 C9.08114381 3.39096713 10.20712249 5.559653 12.125 8.3125 C12.80820312 9.27800781 13.49140625 10.24351563 14.1953125 11.23828125 C18 17.06060606 18 17.06060606 18 21 C17.34 21 16.68 21 16 21 C15.54625 19.865625 15.0925 18.73125 14.625 17.5625 C13.42904194 13.95278308 13.42904194 13.95278308 11 13 C9.96708324 11.01679982 8.9662501 9.01652194 8 7 C7.67 6.67 7.34 6.34 7 6 C6.01 6 5.02 6 4 6 C1.8125 4.6875 1.8125 4.6875 0 3 C0 2.01 0 1.02 0 0 Z " fill="#2D74A7" transform="translate(20,9)"/>
<path d="M0 0 C0.4125 0.639375 0.825 1.27875 1.25 1.9375 C3.17810487 4.20990931 4.11424181 4.60196439 7 5 C7 6.32 7 7.64 7 9 C6.01 9.495 6.01 9.495 5 10 C5.33 12.64 5.66 15.28 6 18 C5.01 18.33 4.02 18.66 3 19 C0.88838269 9.58997722 0.88838269 9.58997722 0 5 C-0.99 5.495 -0.99 5.495 -2 6 C-2.33 5.01 -2.66 4.02 -3 3 C-2.01 2.01 -1.02 1.02 0 0 Z " fill="#0E86D5" transform="translate(27,20)"/>
<path d="M0 0 C6.45819268 0.07210103 11.73190559 2.32100246 16.5625 6.5625 C17.036875 7.14 17.51125 7.7175 18 8.3125 C17.01 8.8075 17.01 8.8075 16 9.3125 C15.59136719 8.85101563 15.18273437 8.38953125 14.76171875 7.9140625 C9.9030438 3.49708527 2.28923255 2.88424841 -4 2.3125 C-4 5.9425 -4 9.5725 -4 13.3125 C-4.33 13.3125 -4.66 13.3125 -5 13.3125 C-5.02686553 11.33340602 -5.04633375 9.35421029 -5.0625 7.375 C-5.07410156 6.27285156 -5.08570313 5.17070312 -5.09765625 4.03515625 C-4.94863777 -0.1194789 -3.80379591 0.12547243 0 0 Z " fill="#051A35" transform="translate(7,2.6875)"/>
<path d="M0 0 C3.47691229 0.29802105 5.01512296 1.0117623 7.8125 3.1875 C10.38153045 6.49053916 10.45289181 7.92397372 10 12 C10 12.66 10 13.32 10 14 C10.66 14.66 11.32 15.32 12 16 C5.375 17 5.375 17 2 17 C3.32 15.68 4.64 14.36 6 13 C5.67 12.34 5.34 11.68 5 11 C6.32 11 7.64 11 9 11 C7.23711091 8.10091911 7.23711091 8.10091911 5.375 6.5 C4 5 4 5 4 2 C2.68 1.34 1.36 0.68 0 0 Z " fill="#797977" transform="translate(75,23)"/>
<path d="M0 0 C0.66 0.33 1.32 0.66 2 1 C1.01 1.33 0.02 1.66 -1 2 C-1.33 2.99 -1.66 3.98 -2 5 C-13.55 5 -25.1 5 -37 5 C-37 4.34 -37 3.68 -37 3 C-36.19892822 3.01571045 -35.39785645 3.0314209 -34.57250977 3.04760742 C-30.90257986 3.11041148 -27.23276351 3.14913488 -23.5625 3.1875 C-21.67241211 3.22520508 -21.67241211 3.22520508 -19.74414062 3.26367188 C-12.40626017 3.32114875 -6.83756811 2.62430322 0 0 Z " fill="#0E385F" transform="translate(84,63)"/>
<path d="M0 0 C1.65 0.33 3.3 0.66 5 1 C5 5 5 5 2.6875 7.6875 C0 10 0 10 -3 11 C-3.625 9.125 -3.625 9.125 -4 7 C-3.34 6.34 -2.68 5.68 -2 5 C-2.33 4.34 -2.66 3.68 -3 3 C-2.34 3 -1.68 3 -1 3 C-0.67 2.01 -0.34 1.02 0 0 Z " fill="#EEEEED" transform="translate(79,29)"/>
<path d="M0 0 C2.80751058 2.6854449 3.95777562 3.98661489 4.125 8 C4 11 4 11 3 13 C2.34 13 1.68 13 1 13 C0.67 11.68 0.34 10.36 0 9 C-0.66 9 -1.32 9 -2 9 C-1.67 8.34 -1.34 7.68 -1 7 C-1 4.53721199 -1.85452863 3.14775881 -3 1 C-2.01 0.67 -1.02 0.34 0 0 Z " fill="#C0C0BE" transform="translate(98,85)"/>
<path d="M0 0 C7.92 0.33 15.84 0.66 24 1 C24.33 2.65 24.66 4.3 25 6 C22.69 6 20.38 6 18 6 C18.66 5.67 19.32 5.34 20 5 C20 4.01 20 3.02 20 2 C13.4 2 6.8 2 0 2 C0 1.34 0 0.68 0 0 Z " fill="#0C7FC8" transform="translate(46,69)"/>
<path d="M0 0 C0 3 0 3 -1.828125 5.2265625 C-3.02695313 6.41378906 -3.02695313 6.41378906 -4.25 7.625 C-5.03890625 8.42164062 -5.8278125 9.21828125 -6.640625 10.0390625 C-8.89945122 11.91643131 -10.13817731 12.61929882 -13 13 C-12.38125 12.278125 -11.7625 11.55625 -11.125 10.8125 C-8.89763094 8.19582824 -8.89763094 8.19582824 -8.1875 5.375 C-6.36451729 1.72903458 -3.76995858 1.32646691 0 0 Z " fill="#185483" transform="translate(106,62)"/>
<path d="M0 0 C0 0.33 0 0.66 0 1 C-1.65 1 -3.3 1 -5 1 C-5 1.66 -5 2.32 -5 3 C-4.34 3 -3.68 3 -3 3 C-3.33 4.65 -3.66 6.3 -4 8 C-10.15234375 7.4140625 -10.15234375 7.4140625 -12 7 C-12.33 6.34 -12.66 5.68 -13 5 C-11.02 4.67 -9.04 4.34 -7 4 C-7.33 3.01 -7.66 2.02 -8 1 C-5.29120665 -0.35439668 -2.99066732 -0.06501451 0 0 Z " fill="#CCCDCE" transform="translate(71,54)"/>
<path d="M0 0 C0.99 0.33 1.98 0.66 3 1 C3 1.66 3 2.32 3 3 C3.99 2.67 4.98 2.34 6 2 C5.25 7.75 5.25 7.75 3 10 C3.99 11.485 3.99 11.485 5 13 C4.67 13.66 4.34 14.32 4 15 C1.69 13.02 -0.62 11.04 -3 9 C-2.01 8.34 -1.02 7.68 0 7 C0.66 6.34 1.32 5.68 2 5 C1.67 4.360625 1.34 3.72125 1 3.0625 C0 1 0 1 0 0 Z " fill="#0B65A6" transform="translate(17,12)"/>
<path d="M0 0 C1.65 0 3.3 0 5 0 C5 0.99 5 1.98 5 3 C0.5662174 6.98464618 -4.15260862 8.63453804 -10 9 C-10 8.34 -10 7.68 -10 7 C-9.030625 6.87625 -8.06125 6.7525 -7.0625 6.625 C-6.051875 6.41875 -5.04125 6.2125 -4 6 C-3.67 5.34 -3.34 4.68 -3 4 C-2.34 4 -1.68 4 -1 4 C-0.67 2.68 -0.34 1.36 0 0 Z " fill="#2B83C1" transform="translate(92,69)"/>
<path d="M0 0 C0.66 0 1.32 0 2 0 C2.33 0.66 2.66 1.32 3 2 C6.3 2 9.6 2 13 2 C13 2.99 13 3.98 13 5 C7.55106131 6.19876651 4.77830905 5.91360308 0 3 C0 2.01 0 1.02 0 0 Z " fill="#999998" transform="translate(48,98)"/>
<path d="M0 0 C0.98613281 0.00322266 1.97226563 0.00644531 2.98828125 0.00976562 C4.02082031 0.01814453 5.05335937 0.02652344 6.1171875 0.03515625 C7.67759766 0.04192383 7.67759766 0.04192383 9.26953125 0.04882812 C11.84380712 0.06063673 14.41796896 0.0771055 16.9921875 0.09765625 C16.9921875 0.42765625 16.9921875 0.75765625 16.9921875 1.09765625 C10.0621875 1.09765625 3.1321875 1.09765625 -4.0078125 1.09765625 C-4.0078125 3.07765625 -4.0078125 5.05765625 -4.0078125 7.09765625 C-4.9978125 6.43765625 -5.9878125 5.77765625 -7.0078125 5.09765625 C-7.0078125 3.77765625 -7.0078125 2.45765625 -7.0078125 1.09765625 C-4.50284246 -0.15482877 -2.79927976 -0.01608781 0 0 Z " fill="#167EC3" transform="translate(89.0078125,12.90234375)"/>
<path d="M0 0 C1.953125 0.98828125 1.953125 0.98828125 4 3 C4.45718128 5.84566041 4.69521446 8.33616173 4.75 11.1875 C4.77964844 11.93708984 4.80929688 12.68667969 4.83984375 13.45898438 C4.9104079 15.30541307 4.95748476 17.15271261 5 19 C3.19523895 15.74358332 2.26051195 12.54663205 1.375 8.9375 C1.11460938 7.89464844 0.85421875 6.85179687 0.5859375 5.77734375 C0 3 0 3 0 0 Z " fill="#164670" transform="translate(25,33)"/>
<path d="M0 0 C0.66 0 1.32 0 2 0 C1.53998088 2.14675591 1.03717273 3.93030113 0 5.875 C-1.25330113 8.5382649 -1.60416681 11.09722329 -2 14 C-4 11 -4 11 -3.8125 7.5625 C-3.03649141 4.16000079 -2.43895271 2.43895271 0 0 Z " fill="#A2A2A3" transform="translate(49,84)"/>
<path d="M0 0 C0.33 0.99 0.66 1.98 1 3 C-1.72284637 8.3322408 -4.7234486 10.55715213 -10 13 C-10.66 12.67 -11.32 12.34 -12 12 C-11.30132812 11.46890625 -10.60265625 10.9378125 -9.8828125 10.390625 C-8.97273438 9.68421875 -8.06265625 8.9778125 -7.125 8.25 C-6.22007813 7.55390625 -5.31515625 6.8578125 -4.3828125 6.140625 C-2.14952853 4.13433055 -1.08041718 2.75692659 0 0 Z " fill="#1D4D75" transform="translate(98,50)"/>
<path d="M0 0 C4.75 0.75 4.75 0.75 7 3 C5.35 4.32 3.7 5.64 2 7 C1.01 6.34 0.02 5.68 -1 5 C-0.67 3.35 -0.34 1.7 0 0 Z " fill="#A4A3A0" transform="translate(71,31)"/>
<path d="M0 0 C0.66 0 1.32 0 2 0 C4.04169485 2.90548882 5 4.40142046 5 8 C5.99 8.33 6.98 8.66 8 9 C7.34 10.32 6.68 11.64 6 13 C5.34 13 4.68 13 4 13 C2 7.25 2 7.25 2 5 C1.36096883 3.32254318 0.69658363 1.65438613 0 0 Z " fill="#157FC5" transform="translate(26,14)"/>
<path d="M0 0 C0.86625 0.4640625 0.86625 0.4640625 1.75 0.9375 C3.9207821 2.07077603 3.9207821 2.07077603 6.125 2.4375 C8 3 8 3 10 6 C9.01 6.495 9.01 6.495 8 7 C7.67 6.67 7.34 6.34 7 6 C6.01 6 5.02 6 4 6 C1.8125 4.6875 1.8125 4.6875 0 3 C0 2.01 0 1.02 0 0 Z " fill="#1C6193" transform="translate(20,9)"/>
<path d="M0 0 C0 0.66 0 1.32 0 2 C-0.66 2 -1.32 2 -2 2 C-2 2.66 -2 3.32 -2 4 C-1.01 4.33 -0.02 4.66 1 5 C-0.32 5 -1.64 5 -3 5 C-3 5.99 -3 6.98 -3 8 C-3.99 7.67 -4.98 7.34 -6 7 C-5.67 5.68 -5.34 4.36 -5 3 C-5.66 3 -6.32 3 -7 3 C-7 2.34 -7 1.68 -7 1 C-2.25 0 -2.25 0 0 0 Z " fill="#EEEEEE" transform="translate(73,54)"/>
<path d="M0 0 C1.32 0.33 2.64 0.66 4 1 C5 5.75 5 5.75 5 8 C3.35 7.67 1.7 7.34 0 7 C0 4.69 0 2.38 0 0 Z " fill="#EEEDEF" transform="translate(80,46)"/>
<path d="M0 0 C0.66 0.33 1.32 0.66 2 1 C2 2.65 2 4.3 2 6 C-1 7 -1 7 -4 6 C-4.33 7.32 -4.66 8.64 -5 10 C-5.3125 7.8125 -5.3125 7.8125 -5 5 C-2.5 2.1875 -2.5 2.1875 0 0 Z " fill="#ACACAC" transform="translate(68,36)"/>
<path d="M0 0 C2.32590854 3.63423209 2.16265833 6.77088331 2 11 C1.01 10.67 0.02 10.34 -1 10 C-1.125 2.25 -1.125 2.25 0 0 Z " fill="#1B5F8D" transform="translate(45,57)"/>
<path d="M0 0 C0.99 0 1.98 0 3 0 C1.83981519 2.32036962 0.77797841 4.09502313 -1 6 C-3.6875 6.25 -3.6875 6.25 -6 6 C-6 5.01 -6 4.02 -6 3 C-5.195625 2.690625 -4.39125 2.38125 -3.5625 2.0625 C-1.10919595 1.23664655 -1.10919595 1.23664655 0 0 Z " fill="#DEDFDE" transform="translate(76,56)"/>
<path d="M0 0 C-2.37050084 2.62002725 -4.87276017 4.35819909 -8 6 C-8.99 6 -9.98 6 -11 6 C-11 5.34 -11 4.68 -11 4 C-9.35546875 2.67578125 -9.35546875 2.67578125 -7.1875 1.3125 C-6.47980469 0.85488281 -5.77210937 0.39726563 -5.04296875 -0.07421875 C-3 -1 -3 -1 0 0 Z " fill="#267AB2" transform="translate(94,61)"/>
<path d="M0 0 C2.475 0.99 2.475 0.99 5 2 C5.33 4.97 5.66 7.94 6 11 C4.41028035 8.61542052 3.13258407 6.3695876 1.875 3.8125 C1.52179687 3.09707031 1.16859375 2.38164062 0.8046875 1.64453125 C0.53914063 1.10183594 0.27359375 0.55914063 0 0 Z " fill="#27669E" transform="translate(22,27)"/>
<path d="M0 0 C2 0.25 2 0.25 4 1 C4.33 1.99 4.66 2.98 5 4 C3.02253397 4.73080266 1.01927511 5.39421747 -1 6 C-1.66 5.67 -2.32 5.34 -3 5 C-1.125 1.125 -1.125 1.125 0 0 Z " fill="#EDEDEB" transform="translate(57,26)"/>
<path d="M0 0 C1.73684533 3.47369066 2.30084112 5.07619937 2.625 8.75 C2.69976562 9.54921875 2.77453125 10.3484375 2.8515625 11.171875 C2.90054688 11.77515625 2.94953125 12.3784375 3 13 C2.67 12.34 2.34 11.68 2 11 C1.34 11 0.68 11 0 11 C0 7.37 0 3.74 0 0 Z " fill="#15476C" transform="translate(42,44)"/>
<path d="M0 0 C1.8871875 0.061875 1.8871875 0.061875 3.8125 0.125 C3.8125 0.455 3.8125 0.785 3.8125 1.125 C2.760625 1.393125 1.70875 1.66125 0.625 1.9375 C-2.76269246 2.9926829 -5.25839567 4.17226378 -8.1875 6.125 C-7.875 4.25 -7.875 4.25 -7.1875 2.125 C-4.09861478 0.06574319 -3.47814073 -0.1140374 0 0 Z " fill="#EBEBE9" transform="translate(91.1875,83.875)"/>
<path d="M0 0 C2.02350324 3.03525486 2.32124018 4.19426202 2.625 7.6875 C2.69976562 8.49574219 2.77453125 9.30398437 2.8515625 10.13671875 C2.90054688 10.75160156 2.94953125 11.36648437 3 12 C2.67 11.01 2.34 10.02 2 9 C1.34 9 0.68 9 0 9 C0 6.03 0 3.06 0 0 Z " fill="#276897" transform="translate(30,48)"/>
<path d="M0 0 C1.32 0.66 2.64 1.32 4 2 C3.67 2.99 3.34 3.98 3 5 C2.01 5.33 1.02 5.66 0 6 C-0.66 4.68 -1.32 3.36 -2 2 C-1.34 2 -0.68 2 0 2 C0 1.34 0 0.68 0 0 Z " fill="#C8C8C6" transform="translate(96,96)"/>
<path d="M0 0 C2.64 1.98 5.28 3.96 8 6 C5 7 5 7 1 7 C0.67 4.69 0.34 2.38 0 0 Z " fill="#878888" transform="translate(58,47)"/>
<path d="M0 0 C1.32 0.66 2.64 1.32 4 2 C3.67 2.66 3.34 3.32 3 4 C2.01 4.33 1.02 4.66 0 5 C-0.33 5.66 -0.66 6.32 -1 7 C-1.66 7 -2.32 7 -3 7 C-1.125 1.125 -1.125 1.125 0 0 Z " fill="#E1E1E1" transform="translate(53,30)"/>
<path d="M0 0 C1.98 0.66 3.96 1.32 6 2 C6.33 3.65 6.66 5.3 7 7 C3.00003714 5.66667905 2.16217663 3.5042173 0 0 Z " fill="#2480BE" transform="translate(18,21)"/>
<path d="M0 0 C1.98 0.66 3.96 1.32 6 2 C6 2.33 6 2.66 6 3 C-0.625 4 -0.625 4 -4 4 C-2.68 2.68 -1.36 1.36 0 0 Z " fill="#181816" transform="translate(81,36)"/>
<path d="M0 0 C1.23556641 0.01740234 1.23556641 0.01740234 2.49609375 0.03515625 C3.32238281 0.04417969 4.14867188 0.05320312 5 0.0625 C5.63808594 0.07410156 6.27617188 0.08570312 6.93359375 0.09765625 C6.93359375 0.42765625 6.93359375 0.75765625 6.93359375 1.09765625 C5.86818359 1.27941406 5.86818359 1.27941406 4.78125 1.46484375 C3.86214844 1.63242187 2.94304687 1.8 1.99609375 1.97265625 C1.07957031 2.13507812 0.16304688 2.2975 -0.78125 2.46484375 C-1.53535156 2.67367187 -2.28945313 2.8825 -3.06640625 3.09765625 C-3.39640625 3.75765625 -3.72640625 4.41765625 -4.06640625 5.09765625 C-2.94676868 0.13926128 -2.94676868 0.13926128 0 0 Z " fill="#A6A7A6" transform="translate(64.06640625,29.90234375)"/>
<path d="M0 0 C0.66 0.33 1.32 0.66 2 1 C1.34 2.32 0.68 3.64 0 5 C-1.32 5 -2.64 5 -4 5 C-3.67 4.01 -3.34 3.02 -3 2 C-2.01 2 -1.02 2 0 2 C0 1.34 0 0.68 0 0 Z " fill="#2984C7" transform="translate(105,59)"/>
<path d="M0 0 C1.625 1.6875 1.625 1.6875 3 4 C2.1875 6.75 2.1875 6.75 1 9 C0.01 7.68 -0.98 6.36 -2 5 C-1.34 5 -0.68 5 0 5 C0 3.35 0 1.7 0 0 Z " fill="#14629C" transform="translate(107,53)"/>
<path d="M0 0 C0.66 0.33 1.32 0.66 2 1 C0.515 4.465 0.515 4.465 -1 8 C-1.33 8 -1.66 8 -2 8 C-2.33 6.02 -2.66 4.04 -3 2 C-2.01 1.34 -1.02 0.68 0 0 Z " fill="#CED0CF" transform="translate(56,49)"/>
<path d="M0 0 C1.98 0 3.96 0 6 0 C4.515 1.98 4.515 1.98 3 4 C2.34 3.67 1.68 3.34 1 3 C0.67 3.66 0.34 4.32 0 5 C0 3.35 0 1.7 0 0 Z " fill="#E2E2E2" transform="translate(64,42)"/>
<path d="M0 0 C0.99 0 1.98 0 3 0 C4.4783226 2.95664519 4.06032783 5.74229737 4 9 C3.01 9.495 3.01 9.495 2 10 C2.04125 9.0925 2.0825 8.185 2.125 7.25 C2.00468444 4.1217954 1.6085292 2.61385994 0 0 Z " fill="#F5F5F1" transform="translate(84,39)"/>
<path d="M0 0 C1.27875 -0.061875 2.5575 -0.12375 3.875 -0.1875 C4.95394531 -0.23970703 4.95394531 -0.23970703 6.0546875 -0.29296875 C6.69664063 -0.19628906 7.33859375 -0.09960938 8 0 C8.66 0.99 9.32 1.98 10 3 C6.7 2.34 3.4 1.68 0 1 C0 0.67 0 0.34 0 0 Z " fill="#16507F" transform="translate(4,17)"/>
</svg>
